/* XPM */
static char *e991033396a945e3e40ce65440c00045wKEDEVJevufKMnUX[] = {
/* columns rows colors chars-per-pixel */
"64 64 246 2 ",
"   c None",
".  c #562B00",
"X  c #5C370B",
"o  c #683906",
"O  c #72430C",
"+  c #6A4718",
"@  c #734B1B",
"#  c #754915",
"$  c #7D531C",
"%  c #76521C",
"&  c #65400C",
"*  c #6C5224",
"=  c #7C5C25",
"-  c #795727",
";  c #745229",
":  c #7D612C",
">  c #7C6334",
",  c #844D0B",
"<  c #8B5405",
"1  c #935C01",
"2  c #915F0F",
"3  c #85571A",
"4  c #925E1A",
"5  c #814E11",
"6  c #96630B",
"7  c #9B660B",
"8  c #9C690C",
"9  c #986206",
"0  c #9C6A13",
"q  c #9D631C",
"w  c #9B6C1A",
"e  c #966718",
"r  c #96691B",
"t  c #A16C0E",
"y  c #A16D1B",
"u  c #A26A17",
"i  c #A3721D",
"p  c #A77517",
"a  c #845B24",
"s  c #845D2D",
"d  c #845925",
"f  c #825E35",
"g  c #82622B",
"h  c #8C652B",
"j  c #886429",
"k  c #936A2C",
"l  c #996A25",
"z  c #9E742C",
"x  c #9D7124",
"c  c #856432",
"v  c #846A34",
"b  c #8A6A36",
"n  c #936D33",
"m  c #956F36",
"M  c #8B723A",
"N  c #947135",
"B  c #9B7335",
"V  c #94733B",
"C  c #9B753A",
"Z  c #9C793D",
"A  c #A46C23",
"S  c #A46F29",
"D  c #A47422",
"F  c #AA7325",
"G  c #A77826",
"H  c #A97C26",
"J  c #A5742B",
"K  c #A9752C",
"L  c #A67A2C",
"P  c #AB7C2C",
"I  c #B37C2C",
"U  c #A47A35",
"Y  c #AB7B33",
"T  c #A47B3C",
"R  c #A77A37",
"E  c #B17E32",
"W  c #B07F38",
"Q  c #8C7442",
"!  c #8B7849",
"~  c #947442",
"^  c #947944",
"/  c #9C7B43",
"(  c #977D4A",
")  c #987F54",
"_  c #A37E43",
"`  c #A57F45",
"'  c #AD8127",
"]  c #B3872D",
"[  c #AE8235",
"{  c #AD833C",
"}  c #A9833C",
"|  c #B48435",
" . c #BA8633",
".. c #BC8936",
"X. c #B4863D",
"o. c #B48B3C",
"O. c #BA8A3A",
"+. c #B58B37",
"@. c #BA913A",
"#. c #AF811E",
"$. c #C38D38",
"%. c #C7943C",
"&. c #D49C3E",
"*. c #DBA33F",
"=. c #9D834B",
"-. c #9D8246",
";. c #9A8354",
":. c #9B8557",
">. c #A48244",
",. c #AB8443",
"<. c #A4844A",
"1. c #AB8649",
"2. c #AD8B4D",
"3. c #AA8B48",
"4. c #B28740",
"5. c #B48B44",
"6. c #B98E44",
"7. c #B38D4B",
"8. c #B98E49",
"9. c #BA9146",
"0. c #BE9946",
"q. c #B6934C",
"w. c #BA924B",
"e. c #BF9B49",
"r. c #B5954A",
"t. c #AB8D52",
"y. c #A48B55",
"u. c #B18E51",
"i. c #AB9457",
"p. c #B49352",
"a. c #BB9451",
"s. c #BC9A54",
"d. c #B4965B",
"f. c #BB9D5B",
"g. c #B49B58",
"h. c #AA9047",
"j. c #BAA35B",
"k. c #BEA14F",
"l. c #A69262",
"z. c #AA9767",
"x. c #B79D64",
"c. c #AA976F",
"v. c #BDA362",
"b. c #B7A469",
"n. c #BCAB75",
"m. c #BCAC7C",
"M. c #B6A477",
"N. c #BCB679",
"B. c #ACA26B",
"V. c #9C8B6D",
"C. c #C19849",
"Z. c #D39F41",
"A. c #C29B53",
"S. c #C39D59",
"D. c #C59B54",
"F. c #D9A343",
"G. c #C9A956",
"H. c #C6A35B",
"J. c #CAA45B",
"K. c #CCAB5C",
"L. c #C7A758",
"P. c #D1AD5A",
"I. c #D3B35B",
"U. c #DABA5D",
"Y. c #CBA44B",
"T. c #CDAC64",
"R. c #C4AD6B",
"E. c #C3A764",
"W. c #D1AD63",
"Q. c #CAB36A",
"!. c #D2B464",
"~. c #D3B46C",
"^. c #D8BA6A",
"/. c #C3AD7A",
"(. c #C6B274",
"). c #C9B778",
"_. c #D9BD74",
"`. c #D3BB77",
"'. c #DBC273",
"]. c #DDC57C",
"[. c #D7C57B",
"{. c #DCC26D",
"}. c #E1C57A",
"|. c #E2CA7D",
" X c #E2C875",
".X c #E9D37D",
"XX c #E1C66B",
"oX c #BEB289",
"OX c #B6A984",
"+X c #B49F81",
"@X c #C3AF82",
"#X c #C7B988",
"$X c #C6BC93",
"%X c #CAC18B",
"&X c #D4C483",
"*X c #DDCB83",
"=X c #D7C889",
"-X c #CEC497",
";X c #D4C995",
":X c #DCD597",
">X c #DED18E",
",X c #E4CD83",
"<X c #E6CE84",
"1X c #E9D385",
"2X c #EAD48B",
"3X c #EDDB8C",
"4X c #E8D587",
"5X c #F2DC8C",
"6X c #EDDC92",
"7X c #E4DB9A",
"8X c #E6DA97",
"9X c #F2DF93",
"0X c #E0CF91",
"qX c #ECE39D",
"wX c #EDE899",
"eX c #F4E294",
"rX c #F3E39A",
"tX c #F9EA9D",
"yX c #F6E89B",
"uX c #FAE995",
"iX c #D6CDA2",
"pX c #D9D3A8",
"aX c #D7D4BB",
"sX c #E4DDA5",
"dX c #E2DDB3",
"fX c #EBE3A3",
"gX c #EBE8A7",
"hX c #F2ECA3",
"jX c #FBEEA3",
"kX c #F3EDAC",
"lX c #FFF3A6",
"zX c #F4F1AB",
"xX c #FFF4AA",
"cX c #FFFBAC",
"vX c #FFFAA6",
"bX c #E9E6B6",
"nX c #FAF5B3",
"mX c #FEFDB4",
"MX c #FFFFBB",
"NX c #F7F3B6",
"BX c #EFF0B6",
"VX c #FFFFC3",
"CX c #F7F7CA",
"ZX c #FAFBD8",
"AX c #EFEFCA",
"SX c #FFFFE2",
/* pixels */
"                                                                                                                                ",
"                                                                                                                                ",
"                                                        [.R.g.y.=.-.y.i.                                                        ",
"                                                wXN.t.M : - - @ % - % * - v :.).                                                ",
"                                          hXB.b % # 5 4 l J Y F K K S S z k s = v y.;X                                          ",
"                                      7X=.@ O 4 I $.$... . .I X.Y R W O.C.K.^.!.s.Z b ) ;X                                      ",
"                                  wX! o # ] &.%...+.X.5.X.P K X.8.U 4.8.A.J.f.~.<X5X<Xj.( z.bX                                  ",
"                                B.& # $.&.%.| | | | 8.,.{ K Y A 7.1.6.A.T.A.x.T.].,X9XmXtXv.:.;X                                ",
"                            gX> o $.&.C. .6.8.I | I w._ K Y J Y 1.8.D.S.T.S.}.,X,X2XjX,XjXVX7Xy.+XSX                            ",
"                          ;XX 2 &.C. .O.a.O.a.X.Y E R K S A K X.6.A.W.^.}.~.v.,X2XjX`.x.0XhXMXMXR.z.AX                          ",
"                        N.. G F.$. . . .6.7.W W y K [ o.6.8.a.p.p.p.u.a.E._.1XeX9XjXS.NX`.&XMXcXVX&Xy.dX                        ",
"                      n.. ..F.o.6. ... .X.K y E L.K.L.s.w.w.S.J.E.T.T.E.R.R.`.#X6XnXhX).x.zXxXxXmXVX7Xt.-X                      ",
"                    ).. $.F.o.p.4.X.|  .y ..!.~.J.4.S S W 4.C.S.T.~._.1X6X9X6X>X>X:XnXhXzXcXmXnXf.hXVXfXu.#X                    ",
"                  :XX  .F.+. .C.p.W K F !. XG.Y q A Y 4.w.A.S.T.~._.}.,X2X6XrXxXxXfXsXzXcXcXkXd.n.NXlXMXqXx.M.                  ",
"                zX+ F F. ... . .X.y O..X~.K q K K Y X.w.A.H.T.~._.2X,X2X6XrXjXjXxXmXxXkXNXMX6X).VXxXxXmXmX*Xd.)                 ",
"                M 5 F.X.C.$. .| u G.3X6.q K Y J Y X.w.A.J.T.~._.5Xf.`.tX9XjXjXxXxXxXxXvXxXNXNXMXlXmXcX`.3XcX~.y.                ",
"              N.o Z.C.6.4.a. .u W.3XK A Y K J R X.w.A.H.T.~._.<X,X- <XjXjXjXxXxXxXxXxXxXvXxXkXfXmX8X).x.|.3X3Xj.~               ",
"            hX% I Z.E a.5.4.y P.2Xu F Y Y F Y 4.w.D.J.T.~._.}.9X=X; >XcXjXxXxXxXxXxXxXxXxXxXcXsXfX3X`.v.v.'. XI._ -             ",
"            i.# Z.O. . .7.u D.3XA K E Y J Y 4.8.D.S.T.~._.].2X9XiX@ ).MXxXxXxXxXjXxXxXxXxXxXxXvX=XrXeXx.|.].K.I.r.c             ",
"          wX# ] $.......F X.3XK A E Y J Y 4.8.D.E.T.~._.}.<X5X%XpXo ).VXxXxXxXxXxXxXxXxXxXxXlXyXtX(.|.5X{.Q.L.0.@.C @           ",
"          i., Z.| $.|  .A .Xw.A E Y J Y 4.8.A.S.T.~._.}.<XeX].m.dX@ d.VXxXxXxXxXxXxXxXxXlXjXyXrXeX,Xx. X!.G.0.+.H J c           ",
"          g ' %...| X.A P.^.4 E Y J Y X.C.D.S.T.~._.}.,X2XvXv.z.dX$ n kXmXlXxXxXxXxXlXMXxXhXrX6X1X4Xj.g.I.0.+.G 8 6 C           ",
"        ).# %...| | E I  XI K Y S R X.w.w.D.~.~._.*X<X2X6XmXj.i.dXd h sXMXxXxXxXxXxXMX7X4XyX3X4X].{.^.} 0.@.L 0 6 7 U v         ",
"        -.4 %. . .| A P.P.4 Y J Y X.8.D.T.t.}.|.].,X3X6XrXmXi.l.pXs k 7XmXxXxXlXmXCX7X* wXuX4X].{.!.I.,.l ] 8 9 0 8 D V         ",
"        g F $.[ T | K !.E K S Y 4.8.D.A. Xj./ ,X9X2X6XrXhXMXr.l.dXa h fXmXxXlXMXNX%X$ ^ cX1X].{.Q.L.0.@.k 8 6 k 0 0 w _         ",
"      [.$ .. .W _ J C.L.l J Y 4.w.A.J.T._.Q.% > [.jX9XtXlXMXg.:.pXa C sXmXxXMXbX= 4 $ R.tX].{.!.G.0.+.' w 6 0 x w i i } c       ",
"      j.3 $.E T Y F A.6.A Y X.8.A.H.T.~.|.Q.: ;.V.>XcXjXcXMX-.l.pXn O M.VXmXbX- o 1.j R.5X{.!.G.0.+.H 8 e l 7 x B p G { V       ",
"      =.4 $.E _ Y P s.K Y 4.8.A.H.T.~._.2X'.% =.bXOX:XMXxXMXj.;.pXs k kXMXzXM.d a C Z ,X'.!.G.0.+.' 6 6 8 l t x B G ' ,./       ",
"      M w ..Y R Y | 8.J 4.8.C.H.T.~._.].2X6Xj v fXAXc.zXcXMXh.l.pXd B nXcXgX@Xf a k p..XQ.G.0.+.H 8 6 0 0 x x D T Y  .,.>.      ",
"    [.j S  .R R K { 5.E 9.s.J.T.~._.}.,X2XxX>.> %XZXV.oXVXMXg.:.pX$ <.mXzXAX@Xb a N Q.{.G.e.o.H 0 6 8 e 0 x G D Z } O.,.3.v     ",
"    R.a J E R R S { 8.6.A.H.T.~._.}.,X2X6XxX*X^ $XdX/.v mXVXj.:.-Xd C kXsXAX/.b # >.'.G.0.+.H 0 6 0 0 w i G L H { 5.0.a.t.k     ",
"    b.: K I U B K 5.q.A.H.T.~.<X,X,X2X6XrXtXMXn.$XpX@X@ n.ZXh.;.pX$ T.7X-XAXm.s % K.!.0.+.' 0 6 0 0 0 i i L [ | { 5.J.a.=.b     ",
"    g.a K I B / O.7.a.J.T._.~.f.<XlXvXjXjXlXcXhX;XAXM.# > SXQ.;.-X$ [.#X-XkXm.; C XX0.@.' 8 9 7 8 w i D H Y { O.<.u.J.7.` b     ",
"    i.= J K R 5.C.5.g.W.~._.,Xg.= ;.&X7XrXcXmXcXnXCXOXs o BX=X! iXb R.z.-XbX@XV I.C.] ' 7 9 w N = w i H H [ } 0.u.p.D.1.y.s     ",
"    x.= S Y X.5.S.7.f._._.].2XjXQ.. * z.$XoX$XMXMXnXOXc O n.zXz.#X_ t.^ -XZXOXY.%.H T d # h y.N w i G [ | { 4.S.u.2.A.` =.=     ",
"      - S 6.5.t.W.p.a.|.].,X2X6XMX[.> z.-XaXoXc.pXZX0X@ @ 1.hXn.@X/./ M bXCXZ.H p.@X) @ = ~ z t i L H | 9.,.w.J.2.2.8.` (       ",
"      c l D.w.t.~.H.f.<X<X2X6X9XhXMX>Xz.$XdXsXz.> c.SXy.X B ].N.oXj.j l.dXI.' iXCXm.~ ; s w 8 D H Y | o.e.2.a.a.1.1.1.` V       ",
"      ^ h P.D.t.W._.v.2X2X6XrXjXhXxXMXhXsXZXiXc.^ . ! AX=.O `.hX-Xj.: c.K.o.oXbX$Xm.l.d 2 p G G [ [ X.9.S.2.a.w.7.1.T <.M       ",
"      z.h T.W.S.~.<XR.<X9XrXhXlXxXxXxXcXxXMXBXM.f o o ~ >X,.n %X%Xj.v r.-.:.oXdXZXiXV 6 i D L P [ X.9.S.a.>.a.1.,._ B <.:       ",
"        g J.].x.x.eX`.=XjXtXkXxXxXxXxXxXxXlXnXfX/.f d 3 B v.3 n.:Xk.r.: ; M.dXSX;Xz 9 p D G P [ +.9.A.J.1.,.w./ _ T n (         ",
"        ^ w.1X~.R.2X2X=XlXjXxXxXxXxXxXxXxXxXxXmXVXMXtX:Xj.Z -.v.~.j.3.: a x ' t < 1 i D L P | o.8.D.S.A._ 2.,./ / U V Q         ",
"        z.-.5X].R.9XjX=XhXxXxXxXxXxXxXxXxXlXxXMXwX7X;Xy.b -.N M Q.h.* ;.m.<.5 < p p x G ' [ o.8.A.S.s.4./ 7.T / U h / b         ",
"          ^ }.rX&X&XcXfX7XmXxXxXxXxXxXxXvXMXMXn.c.aXM.@ o >.} g.E.0.= B.SXAXV.X $ G ' ' | o.6.A.S.a.C./ 1._ Z Z B s ^           ",
"          i.f.cX4Xn.7XmXsXlXxXxXxXxXxXxXmX:X: ; -XAX%Xi.s.!.I.H.>.H 0 z Q.#Xy.d j C k [ X.w.A.S.p.a.` / 5.C / B h V Q           ",
"          :X;.9XMX)./.mXkXkXvXxXxXxXxXnXxX].(.wXuX3X.X.X XI.@.r.-.7 7 9 < < y p H [ R o.9.A.S.a.8.7.C 1.C B C m $ ( ;           ",
"            b.E.MXxXn.7XmXNXnXlXxXxXxXlXjXxXcXyX4X].{.!.L.0.+.h.B 1 0 0 0 w i L H [ X.9.A.S.a.7.a.B <.` N ~ k a M !             ",
"            bXi.6XVX0X#XkXmXNXnXxXxXxXjXyXrX3X1X].'.!.L.0.@.i ' B 1 0 0 i D H ' | o.8.s.S.a.7.a.T ^ 4.n V B k % ;.+             ",
"              pXd.MXmX).:XwXcXbXxXxXjXjXrX6X4X|.'.!.L.e.+.' 7 x Z 9 w i i H L [ o.9.A.S.a.7.w.T Q 2.B V V h $ ^ Q               ",
"                #XR.VXmXx.7XVXzX:XzXlXrX3X1X|.'.!.G.C.@.H 0 1 z / 9 i D G P | X.8.A.S.a.7.a.T M 2.U b C k 3 c :.                ",
"                SXm.[.VXxXfX&XmXhX&X6XyX<X|.{.Q.G.0.o.H 0 6 0 w x w i L Y [ o.6.A.S.a.8.a.C V 7.B h C b a % y.+                 ",
"                  CXx.8XCX>Xc.:XcXyX(.[.4X X!.L.0.o.' 0 6 8 0 8 0 i G P [ o.6.A.S.a.a.7.m ^ 7.m m ~ n a # y.>                   ",
"                    dXp.hXVXwXb.*XeXeXE.g.K.I.Y.o.' e 6 0 0 w i D H P [ X.9.D.S.A.a._ C <.7.m V / B a # ;.M                     ",
"                      ;Xf.qXmXtXQ.R.]..XL.-.} o.' 8 9 8 e w w i G P { X.6.D.J.a.` / / u.} n B m n d @ y.Q                       ",
"                        @XE.1XlX3XR.v.E.I.Y.L l r e 0 0 8 0 i G H +.X.9.A.a.1.<.` 7.7.B V ~ k h 3 % y.Q                         ",
"                          c.x.'.3X'.L.s.2.} ' t 6 l x z L U [ } { ,.5.q.u.u.7.u.8._ B ^ Z B k $ c i.>                           ",
"                            ) t.H.{.I.0.,.} k e 0 9 0 i ' } +.5.8.q.f.H.S.a.7.` T / _ T n a $ / y.*                             ",
"                                ~ 2.A.@.p t w z z z r D D G L Y 6.C.D.a.1.` ` 1.Z C C h 3 m t.!                                 ",
"                                  ; b ` P 7 1 7 x L z [ L ,.,.7.a.t.p.8.1.2.` _ T h j C y.;.*                                   ",
"                                      @ m _ [ D 0 t i [ [ o.w.L.f.a.8.2.1.T B m Z 1.y.( -                                       ",
"                                          ; b _ 1.5.5.X.o.9.a.A.a.8.2.,.1.2.2.2.=.M +                                           ",
"                                                  M / >.2.p.g.p.p.t.u.3._ V b                                                   ",
"                                                          b N V N v :                                                           ",
"                                                                                                                                ",
"                                                                                                                                "
};
