/* XPM */
static char *de9c4d05cca0411b9daeb21483aadc9dGaowWdx5oUqdyt6M[] = {
/* columns rows colors chars-per-pixel */
"16 16 174 2 ",
"   c None",
".  c #7B5C2E",
"X  c #7E5F2D",
"o  c #874F00",
"O  c #895200",
"+  c #8B5300",
"@  c #885202",
"#  c #8B5500",
"$  c #805009",
"%  c #925F0B",
"&  c #97620E",
"*  c #906213",
"=  c #9B6A14",
"-  c #9D6A14",
";  c #9F6D16",
":  c #926418",
">  c #9E6E19",
",  c #9E6F1E",
"<  c #A3640B",
"1  c #AA680D",
"2  c #A96A12",
"3  c #855D22",
"4  c #8E6729",
"5  c #9B6621",
"6  c #8B6831",
"7  c #966F31",
"8  c #916E34",
"9  c #9B7235",
"0  c #9C7335",
"q  c #9E7836",
"w  c #9B7338",
"e  c #A16B26",
"r  c #A06D27",
"t  c #A36E27",
"y  c #A06E2B",
"u  c #A37523",
"i  c #A47524",
"p  c #A7742A",
"a  c #A6732F",
"s  c #A7742D",
"d  c #A9752B",
"f  c #A3782E",
"g  c #AB7E29",
"h  c #B87E29",
"j  c #A77630",
"k  c #A97B35",
"l  c #AB7B35",
"z  c #B07F36",
"x  c #916F43",
"c  c #957646",
"v  c #9B7D4B",
"b  c #A17D42",
"n  c #A17D43",
"m  c #AF822A",
"M  c #B28425",
"N  c #B08328",
"B  c #AB8035",
"V  c #AF8335",
"C  c #AB873F",
"Z  c #B48337",
"A  c #BB8432",
"S  c #B28338",
"D  c #B38539",
"F  c #B4873B",
"G  c #B58F3B",
"H  c #C79F3E",
"J  c #A18047",
"K  c #A78246",
"L  c #A88245",
"P  c #A98347",
"I  c #AA8346",
"U  c #AC8B47",
"Y  c #A8874B",
"T  c #A3884C",
"R  c #AB8A4C",
"E  c #B78D43",
"W  c #B38D49",
"Q  c #AC914D",
"!  c #BE9241",
"~  c #BC9247",
"^  c #B3904F",
"/  c #BC9348",
"(  c #BA924C",
")  c #BA934D",
"_  c #BC944C",
"`  c #A18654",
"'  c #A98B51",
"]  c #A48B5B",
"[  c #A18B5E",
"{  c #AC9052",
"}  c #AC995B",
"|  c #B09251",
" . c #BF9751",
".. c #B2985E",
"X. c #B49968",
"o. c #B49E76",
"O. c #B19B78",
"+. c #BAAB6E",
"@. c #BFA96E",
"#. c #C49742",
"$. c #C39947",
"%. c #C79C4D",
"&. c #C79E4F",
"*. c #C49D54",
"=. c #C39F58",
"-. c #C09B5D",
";. c #C19C5C",
":. c #C39E5E",
">. c #C5A059",
",. c #C8A359",
"<. c #C9A55D",
"1. c #D1AA5F",
"2. c #C29E60",
"3. c #C29F60",
"4. c #C7A260",
"5. c #C8A261",
"6. c #C2AD67",
"7. c #C5AC69",
"8. c #C9B16B",
"9. c #C0AC74",
"0. c #C3B078",
"q. c #C2B07D",
"w. c #C4B77F",
"e. c #C8B67D",
"r. c #D9BE76",
"t. c #DFC471",
"y. c #DEC579",
"u. c #E0C57D",
"i. c #E2CA7B",
"p. c #E4CA7B",
"a. c #E1C97E",
"s. c #E6CF7D",
"d. c #EACF78",
"f. c #C4B683",
"g. c #CBBD84",
"h. c #C0BA90",
"j. c #D7C68B",
"k. c #D7C889",
"l. c #D9CC8C",
"z. c #D4C899",
"x. c #DBD390",
"c. c #DED494",
"v. c #E0C882",
"b. c #E5CC81",
"n. c #E0D895",
"m. c #E8DA92",
"M. c #EFDE93",
"N. c #E8DB95",
"B. c #FBE28E",
"V. c #EFE399",
"C. c #FAE694",
"Z. c #F1E398",
"A. c #F4E99E",
"S. c #D4CDA2",
"D. c #E2D7A3",
"F. c #EFECA7",
"G. c #EDE9AC",
"H. c #F1E7A1",
"J. c #F0EBA2",
"K. c #F1ECAB",
"L. c #FFF3A6",
"P. c #F6F4AE",
"I. c #F8F2AA",
"U. c #EEE5B7",
"Y. c #EFEEB0",
"T. c #E4E3BC",
"R. c #F3F3B2",
"E. c #F8F6B3",
"W. c #FFF9B1",
"Q. c #FFFFB3",
"!. c #FFFFB7",
"~. c #FFFFB8",
"^. c #FFFFBB",
"/. c #FFFFC1",
/* pixels */
"            6.7 3 T             ",
"          l d i j ) 8.          ",
"      ' 2 A Z k =.u.M.c.U.      ",
"    | 1 %.F j ,.b.A.P.K.I.9.    ",
"    < &.S e *.v.g.Q.!.^.N.d.    ",
"  V h F 5 <.B.k.[ /.R.Z.y.M *   ",
"  p z s 1.{ F.n.] z.v s.m O i   ",
"q r k  .C.l.h.w.0.O.f H o , ) R ",
"4 7 >.a.+.T.o.` f.j.I $ ; ~ ;.J ",
"  W r.L.G.S.x ..} e.X.O $.;.K   ",
"  7.m.W.^.G.q.U Q c & #.4.I 6   ",
"    x.E.^.Z.p.G % - E 5.v w     ",
"    D.J.H.p.N O = ! 4.n 0 X     ",
"      7.t.g # > / :.L 9 .       ",
"          : i ) 2.L 8           ",
"              ^ R               "
};
