/* XPM */
static char *_48ae8c71eee4633ff3c611928638512W3DcLbGR7bkSpiID[] = {
/* columns rows colors chars-per-pixel */
"32 32 215 2 ",
"   c None",
".  c #5C2500",
"X  c #7B4F19",
"o  c #745A2B",
"O  c #7E5C2C",
"+  c #7A5428",
"@  c #7A5C31",
"#  c #7C612E",
"$  c #7C6138",
"%  c #965D04",
"&  c #935D0C",
"*  c #945905",
"=  c #865A16",
"-  c #945E17",
";  c #966105",
":  c #96620B",
">  c #99660A",
",  c #9A6508",
"<  c #8F641B",
"1  c #956412",
"2  c #9B6313",
"3  c #9C6B14",
"4  c #9C641C",
"5  c #95691B",
"6  c #9D6E1D",
"7  c #9E701B",
"8  c #A06E16",
"9  c #A57114",
"0  c #A3731C",
"q  c #AD731B",
"w  c #AA7617",
"e  c #BB7816",
"r  c #835D24",
"t  c #825D2B",
"y  c #8E652B",
"u  c #8C692F",
"i  c #886225",
"p  c #9D6621",
"a  c #946C22",
"s  c #9D6A22",
"d  c #916628",
"f  c #9D7224",
"g  c #9E732C",
"h  c #836532",
"j  c #8A6C34",
"k  c #936D33",
"l  c #8E7236",
"z  c #8E703A",
"x  c #997334",
"c  c #93743C",
"v  c #9C753A",
"b  c #95783D",
"n  c #9C7B3D",
"m  c #9E7834",
"M  c #A16B25",
"N  c #A46F2A",
"B  c #AA7624",
"V  c #A4722C",
"C  c #AE7729",
"Z  c #A67B2D",
"A  c #AA7C2D",
"S  c #A37626",
"D  c #B37E2F",
"F  c #B47724",
"G  c #A57632",
"H  c #A47B33",
"J  c #AB7B32",
"K  c #A47B3D",
"L  c #AB7E3A",
"P  c #836340",
"I  c #937841",
"U  c #9D7C42",
"Y  c #95774C",
"T  c #907046",
"R  c #987951",
"E  c #8C7748",
"W  c #A17E42",
"Q  c #AF802B",
"!  c #B1862E",
"~  c #AC833D",
"^  c #AA8439",
"/  c #B48435",
"(  c #B88536",
")  c #B48B35",
"_  c #B3863C",
"`  c #B58A3E",
"'  c #BA8C3C",
"]  c #BF9634",
"[  c #C48B34",
"{  c #C2862C",
"}  c #9B824A",
"|  c #9E8042",
" . c #9A8259",
".. c #A48144",
"X. c #AA8445",
"o. c #AA8749",
"O. c #AF894A",
"+. c #A3884A",
"@. c #B38A42",
"#. c #B88E45",
"$. c #B38C4C",
"%. c #B58A45",
"&. c #BD9346",
"*. c #BC924A",
"=. c #B8954D",
"-. c #A98D51",
";. c #A48A58",
":. c #AC9256",
">. c #B09657",
",. c #BA9654",
"<. c #BE9954",
"1. c #B6975A",
"2. c #BA9D5C",
"3. c #A58C60",
"4. c #AC9563",
"5. c #AC9C61",
"6. c #AD9469",
"7. c #B49B62",
"8. c #B39F76",
"9. c #BBA66A",
"0. c #BEB16C",
"q. c #AFA576",
"w. c #BBAC74",
"e. c #B2A07F",
"r. c #BEB479",
"t. c #C29C4C",
"y. c #CD9E4B",
"u. c #C79440",
"i. c #D09C41",
"p. c #C19C56",
"a. c #C39D59",
"s. c #CA9F51",
"d. c #CAA253",
"f. c #CAA956",
"g. c #C5A35B",
"h. c #CAA55C",
"j. c #CBAB5A",
"k. c #D1B15D",
"l. c #D7B85C",
"z. c #C3A561",
"x. c #CCAD66",
"c. c #C3AB66",
"v. c #D3AF65",
"b. c #CDB46B",
"n. c #C8B267",
"m. c #D2B463",
"M. c #D4B56D",
"N. c #D8BB69",
"B. c #CBB573",
"V. c #CBB67D",
"C. c #C4B778",
"Z. c #D5BB73",
"A. c #DEBF75",
"S. c #DCC173",
"D. c #D6C47C",
"F. c #DDC77C",
"G. c #D7C077",
"H. c #E1C66E",
"J. c #E1C47A",
"K. c #E5CA7A",
"L. c #E9D27E",
"P. c #CBBE83",
"I. c #C5B98A",
"U. c #D1BF84",
"Y. c #C5BD9B",
"T. c #C5BA93",
"R. c #D3C382",
"E. c #DCC783",
"W. c #DBC983",
"Q. c #D6CD8E",
"!. c #DACA89",
"~. c #D4C68D",
"^. c #DED48F",
"/. c #CECA96",
"(. c #D8CE95",
"). c #D3C197",
"_. c #D8D196",
"`. c #E4CD84",
"'. c #E8CE84",
"]. c #E3D38C",
"[. c #EBD68B",
"{. c #ECD480",
"}. c #F1DD8C",
"|. c #E2D592",
" X c #EDDB91",
".X c #E4DB9A",
"XX c #E8DD96",
"oX c #F4DE91",
"OX c #ECE19B",
"+X c #EBE098",
"@X c #F4E497",
"#X c #F8E79C",
"$X c #F9EA9D",
"%X c #F5E89B",
"&X c #D9D3A6",
"*X c #E1DBA2",
"=X c #E1DEB5",
"-X c #EAE6A3",
";X c #EEE9AA",
":X c #F4ECA4",
">X c #F4EDA9",
",X c #F8EEA2",
"<X c #FDF3A6",
"1X c #FFF5AA",
"2X c #FFFAAD",
"3X c #F4F1AC",
"4X c #E4E1BC",
"5X c #FEFCB4",
"6X c #FFFEBC",
"7X c #F7F6B7",
"8X c #E7E8C9",
"9X c #FFFFC2",
"0X c #FEFECB",
"qX c #FFFFD9",
"wX c #FBFDD2",
/* pixels */
"                                                                ",
"                          c.+.l j j }                           ",
"                    7.m d - 4 V M p G ..-.4.                    ",
"                q.i 2 F [ *./ D X.t.h.M.J.G.C.I.                ",
"              l & [ s._ B L V G %.h.x.A.oX X:X~.I.              ",
"            = q i.( J %.u._ %.*.a.z.B.E.@XU.!.0X.XU.            ",
"          r e d.H D d.t._ J #.g.A.`.[.XX-X;X7X!.|.6XV.          ",
"        | q y.C #.k.&.p M $.h.M.G.`.$X1X2X1X5X.X>X>X,X7.        ",
"      r.& y.W [ N.J p G *.h.b.oX>.R.5X<X<X<X2X5X>Xc.F.L.#       ",
"      a { D _ v.C M J #.h.M.K.>X .R.9X1X1X<X2X<X].E.S.l.^       ",
"    0.2 u.C h._ M J t.a.M.J. X_.Y 9.9X1X2X6X<X%X`.b.k.! w +     ",
"    ^ F D u.t.8 G #.a.J.'. X%XC.Y :.9X2XwXP.^.}.J.<.Q 1 , x     ",
"    s ( G t.J N #.v.z.} [.<X:Xr.R :.0X7X;.j  XS.j.) : 1 3 Z     ",
"  C.2 _ ~ _ V #.a.J.m.# T.5X2Xw.Y O.qX;.. g.}.f.) 1 : s S ) h   ",
"  >.4 L J L %.g.M.'.[.b Y.&X5X0.T n.qXR X S.m.) : ; 7 f J &.b   ",
"  | M G J *.g.M.oX#X2XV.T.;._.I.Y c.wXY u H.) , ; 3 S J @.a.U   ",
"  b s L $.a.A.b.:.^.1X9X0XO 4._.;.7.=X6.) [ > < 5 w Z ` ,.a.c   ",
"  I p *.=.z.'.@X;.$ Y.).qX;.r *X4.U =Xk.*.t + m 7 Q ^ ,.1.$.j   ",
"  :.V g.z.Z. X#X6XQ.=Xe.+ e.k R.w.} x.P.8XP = w Z ' <.,.$.O.o   ",
"    X.x.B.E.%X1X2X5X6X;X+ u 1.5.!.5 d 8X~.: 9 A ` g.,.X.K ..    ",
"    >.M.E.@X:X2X<X<X2X9X7X9.+ +.0.E 4.g * 9 A ` a.<.X.W v z     ",
"    9.G.|.OX>X2X1X5X;X>.&Xq.H g.Z m &Xh = Z ' a.a.X.W v v o     ",
"      V..X(.6X1X1X5XOXD.}.L.H.=.5 % ; 0 Z _ a.a.X.W U y c       ",
"      ~.^..X.X6X1X1X$X%XS.f.Q f a > 0 A ` a.a.X.U K u k o       ",
"        ).OX.X-X>X@X}.S.j.) : 1 7 0 C ` a.a.X.U n k y b         ",
"          U.>XQ.XXF.b.j.) : ; 3 0 A %.a.p.X.K W k r Y           ",
"            P.<XD.b.<.A 3 : 3 7 A ` p.<.X.W U y d U             ",
"              1.L.f.) 5 & 6 Z ^ @.<.1.o...v y x I               ",
"                h %.q 1 6 0 Z @.<.<.o.W v K b @                 ",
"                    h g J ' &.g.a.,.$.W c h                     ",
"                          j U o...c h                           ",
"                                                                "
};
